<?xml version="1.0" standalone="no"?><!DOCTYPE svg PUBLIC "-//W3C//DTD SVG 1.1//EN" "http://www.w3.org/Graphics/SVG/1.1/DTD/svg11.dtd"><svg t="1667052236217" class="icon" viewBox="0 0 1024 1024" version="1.1" xmlns="http://www.w3.org/2000/svg" p-id="1537" xmlns:xlink="http://www.w3.org/1999/xlink" width="200" height="200"><path d="M528.4 278.2m-160.7 0a160.7 160.7 0 1 0 321.4 0 160.7 160.7 0 1 0-321.4 0Z" fill="#D4DADD" p-id="1538"></path><path d="M367.7 278.2c0 67.3 41.4 124.7 100.1 148.7 1.2 0 2.4 0.4 3.6 0.4 88.8 0 160.7-72 160.7-160.7 0-67.3-41.4-124.7-100.1-148.7-1.2 0-2.4-0.4-3.6-0.4-88.8 0-160.7 72-160.7 160.7z" fill="#E2E7E8" p-id="1539"></path><path d="M528.4 724.1m-284.7 0a284.7 284.7 0 1 0 569.4 0 284.7 284.7 0 1 0-569.4 0Z" fill="#D4DADD" p-id="1540"></path><path d="M243.6 724.1c0 119.2 73.4 221 177.3 263.4 2.2 0.1 4.2 0.6 6.4 0.6 157.3 0 284.7-127.5 284.7-284.7 0-119.2-73.4-221-177.3-263.4-2.2-0.1-4.2-0.6-6.4-0.6-157.2 0-284.7 127.4-284.7 284.7z" fill="#E2E7E8" p-id="1541"></path><path d="M414.9 417v222.5h18.5v-39h14.7v39h18.5v-39h14.8v39h18.5V417z" fill="#D32D2D" p-id="1542"></path><path d="M414.9 417h62.9v157.6h-62.9z" fill="#DD553A" p-id="1543"></path><path d="M389.4 401.2h278v64.5h-278z" fill="#D32D2D" p-id="1544"></path><path d="M389.4 401.2h278v52.2h-278z" fill="#DD553A" p-id="1545"></path><path d="M498 693.6m-24.3 0a24.3 24.3 0 1 0 48.6 0 24.3 24.3 0 1 0-48.6 0Z" fill="#4A646D" p-id="1546"></path><path d="M498 772m-24.3 0a24.3 24.3 0 1 0 48.6 0 24.3 24.3 0 1 0-48.6 0Z" fill="#4A646D" p-id="1547"></path><path d="M498 850.5m-24.3 0a24.3 24.3 0 1 0 48.6 0 24.3 24.3 0 1 0-48.6 0Z" fill="#4A646D" p-id="1548"></path><path d="M361.7 155.9H695v68.7H361.7zM424.7 19h207.4v136.9H424.7z" fill="#34494F" p-id="1549"></path><path d="M424.7 19h100v136.9h-100zM361.7 155.9H695V214H361.7z" fill="#4A646D" p-id="1550"></path></svg>