<svg t="1667315106544" class="icon" viewBox="0 0 1024 1024" version="1.1" xmlns="http://www.w3.org/2000/svg" p-id="7311" width="200" height="200"><path d="M899.7888 457.0624A163.84 163.84 0 0 0 814.08 153.6a162.7136 162.7136 0 0 0-138.24 75.6224A428.3392 428.3392 0 0 0 519.68 199.68a421.1712 421.1712 0 0 0-148.1216 26.4192 163.84 163.84 0 1 0-229.632 225.792 650.24 650.24 0 0 0-39.1168 139.7248C88.2176 682.8032 105.216 757.76 153.6 814.08c66.56 78.1824 189.44 117.76 366.08 117.76 119.7568 0 288.768-11.6224 373.76-112.384 48.2816-57.088 64.4608-135.5264 48.0256-233.216-6.912-42.24-25.856-91.4432-41.6768-129.1776z m-50.3296-43.52a30.72 30.72 0 0 0-17.5616 40.96c14.4896 33.4848 41.4208 95.8976 49.152 141.8752 13.5168 80.0768 2.2528 140.0832-34.304 183.3472C778.24 861.0304 627.2 870.4 519.68 870.4c-155.4432 0-265.984-33.2288-319.5904-96.1024-36.4544-42.752-48.4352-99.328-36.6592-172.9536a601.4464 601.4464 0 0 1 45.4656-150.016 30.72 30.72 0 0 0-15.36-40.5504 102.4 102.4 0 1 1 136.0896-133.7344 30.72 30.72 0 0 0 40.96 15.872A359.424 359.424 0 0 1 519.68 261.12a363.1616 363.1616 0 0 1 157.0816 35.5328 30.72 30.72 0 0 0 41.9328-16.4864 102.4 102.4 0 1 1 130.7648 133.376z" fill="#8b5622" p-id="7312"></path><path d="M350.72 488.96m-43.52 0a43.52 43.52 0 1 0 87.04 0 43.52 43.52 0 1 0-87.04 0Z" fill="#8b5622" p-id="7313"></path><path d="M683.52 488.96m-43.52 0a43.52 43.52 0 1 0 87.04 0 43.52 43.52 0 1 0-87.04 0Z" fill="#8b5622" p-id="7314"></path><path d="M595.968 675.84c-25.9072-2.6112-39.424-24.2688-45.2608-37.12 16.64-7.5264 27.8528-20.0704 27.8528-28.1088 0-12.0832-25.1904-21.9136-56.32-21.9136s-56.32 9.8304-56.32 21.9136c0 8.0384 11.2128 20.48 27.8528 28.1088-5.7856 12.8-19.3536 34.5088-45.2608 37.12a20.48 20.48 0 0 0 2.048 40.96h2.048c35.4304-3.5328 57.1392-25.6 69.632-44.9024 12.4928 19.456 34.2016 41.3696 69.632 44.9024h2.048a20.48 20.48 0 0 0 2.048-40.96z" fill="#8b5622" p-id="7315"></path><path d="M276.1728 586.24a20.48 20.48 0 0 0-27.8528 7.9872l-25.6 46.08a20.48 20.48 0 0 0 35.84 19.8656l25.6-46.08a20.48 20.48 0 0 0-7.9872-27.8528zM352.9728 586.24a20.48 20.48 0 0 0-27.8528 7.9872l-25.6 46.08a20.48 20.48 0 0 0 35.84 19.8656l25.6-46.08a20.48 20.48 0 0 0-7.9872-27.8528zM731.8528 586.24a20.48 20.48 0 0 0-27.8528 7.9872l-25.6 46.08a20.48 20.48 0 0 0 35.84 19.8656l25.6-46.08a20.48 20.48 0 0 0-7.9872-27.8528zM808.6528 586.24a20.48 20.48 0 0 0-27.8528 7.9872l-25.6 46.08a20.48 20.48 0 0 0 35.84 19.8656l25.6-46.08a20.48 20.48 0 0 0-7.9872-27.8528z" fill="#8b5622" p-id="7316"></path></svg>