<!-- <svg width="283" height="64" viewBox="0 0 283 64" fill="none" 
    xmlns="http://www.w3.org/2000/svg">
    <path d="M141.04 16c-11.04 0-19 7.2-19 18s8.96 18 20 18c6.67 0 12.55-2.64 16.19-7.09l-7.65-4.42c-2.02 2.21-5.09 3.5-8.54 3.5-4.79 0-8.86-2.5-10.37-6.5h28.02c.22-1.12.35-2.28.35-3.5 0-10.79-7.96-17.99-19-17.99zm-9.46 14.5c1.25-3.99 4.67-6.5 9.45-6.5 4.79 0 8.21 2.51 9.45 6.5h-18.9zM248.72 16c-11.04 0-19 7.2-19 18s8.96 18 20 18c6.67 0 12.55-2.64 16.19-7.09l-7.65-4.42c-2.02 2.21-5.09 3.5-8.54 3.5-4.79 0-8.86-2.5-10.37-6.5h28.02c.22-1.12.35-2.28.35-3.5 0-10.79-7.96-17.99-19-17.99zm-9.45 14.5c1.25-3.99 4.67-6.5 9.45-6.5 4.79 0 8.21 2.51 9.45 6.5h-18.9zM200.24 34c0 6 3.92 10 10 10 4.12 0 7.21-1.87 8.8-4.92l7.68 4.43c-3.18 5.3-9.14 8.49-16.48 8.49-11.05 0-19-7.2-19-18s7.96-18 19-18c7.34 0 13.29 3.19 16.48 8.49l-7.68 4.43c-1.59-3.05-4.68-4.92-8.8-4.92-6.07 0-10 4-10 10zm82.48-29v46h-9V5h9zM36.95 0L73.9 64H0L36.95 0zm92.38 5l-27.71 48L73.91 5H84.3l17.32 30 17.32-30h10.39zm58.91 12v9.69c-1-.29-2.06-.49-3.2-.49-5.81 0-10 4-10 10V51h-9V17h9v9.2c0-5.08 5.91-9.2 13.2-9.2z" fill="#000"/>
</svg> -->

<svg t="1666849542265" class="icon" viewBox="0 0 1024 1024" version="1.1" xmlns="http://www.w3.org/2000/svg" p-id="7225" width="200" height="200">
    <path d="M899.7888 457.0624A163.84 163.84 0 0 0 814.08 153.6a162.7136 162.7136 0 0 0-138.24 75.6224A428.3392 428.3392 0 0 0 519.68 199.68a421.1712 421.1712 0 0 0-148.1216 26.4192 163.84 163.84 0 1 0-229.632 225.792 650.24 650.24 0 0 0-39.1168 139.7248C88.2176 682.8032 105.216 757.76 153.6 814.08c66.56 78.1824 189.44 117.76 366.08 117.76 119.7568 0 288.768-11.6224 373.76-112.384 48.2816-57.088 64.4608-135.5264 48.0256-233.216-6.912-42.24-25.856-91.4432-41.6768-129.1776z m-50.3296-43.52a30.72 30.72 0 0 0-17.5616 40.96c14.4896 33.4848 41.4208 95.8976 49.152 141.8752 13.5168 80.0768 2.2528 140.0832-34.304 183.3472C778.24 861.0304 627.2 870.4 519.68 870.4c-155.4432 0-265.984-33.2288-319.5904-96.1024-36.4544-42.752-48.4352-99.328-36.6592-172.9536a601.4464 601.4464 0 0 1 45.4656-150.016 30.72 30.72 0 0 0-15.36-40.5504 102.4 102.4 0 1 1 136.0896-133.7344 30.72 30.72 0 0 0 40.96 15.872A359.424 359.424 0 0 1 519.68 261.12a363.1616 363.1616 0 0 1 157.0816 35.5328 30.72 30.72 0 0 0 41.9328-16.4864 102.4 102.4 0 1 1 130.7648 133.376z" fill="#515151" p-id="7226"></path>
    <path d="M350.72 488.96m-43.52 0a43.52 43.52 0 1 0 87.04 0 43.52 43.52 0 1 0-87.04 0Z" fill="#515151" p-id="7227"></path>
    <path d="M683.52 488.96m-43.52 0a43.52 43.52 0 1 0 87.04 0 43.52 43.52 0 1 0-87.04 0Z" fill="#515151" p-id="7228"></path>
    <path d="M595.968 675.84c-25.9072-2.6112-39.424-24.2688-45.2608-37.12 16.64-7.5264 27.8528-20.0704 27.8528-28.1088 0-12.0832-25.1904-21.9136-56.32-21.9136s-56.32 9.8304-56.32 21.9136c0 8.0384 11.2128 20.48 27.8528 28.1088-5.7856 12.8-19.3536 34.5088-45.2608 37.12a20.48 20.48 0 0 0 2.048 40.96h2.048c35.4304-3.5328 57.1392-25.6 69.632-44.9024 12.4928 19.456 34.2016 41.3696 69.632 44.9024h2.048a20.48 20.48 0 0 0 2.048-40.96z" fill="#515151" p-id="7229"></path>
    <path d="M276.1728 586.24a20.48 20.48 0 0 0-27.8528 7.9872l-25.6 46.08a20.48 20.48 0 0 0 35.84 19.8656l25.6-46.08a20.48 20.48 0 0 0-7.9872-27.8528zM352.9728 586.24a20.48 20.48 0 0 0-27.8528 7.9872l-25.6 46.08a20.48 20.48 0 0 0 35.84 19.8656l25.6-46.08a20.48 20.48 0 0 0-7.9872-27.8528zM731.8528 586.24a20.48 20.48 0 0 0-27.8528 7.9872l-25.6 46.08a20.48 20.48 0 0 0 35.84 19.8656l25.6-46.08a20.48 20.48 0 0 0-7.9872-27.8528zM808.6528 586.24a20.48 20.48 0 0 0-27.8528 7.9872l-25.6 46.08a20.48 20.48 0 0 0 35.84 19.8656l25.6-46.08a20.48 20.48 0 0 0-7.9872-27.8528z" fill="#515151" p-id="7230"></path>
</svg>